<svg width="139" height="139" viewBox="0 0 139 139" fill="none" xmlns="http://www.w3.org/2000/svg">
<rect width="139" height="139" fill="none"/>
<path d="M44 27V17C44 16.534 44 16.3011 44.0761 16.1173C44.1776 15.8723 44.3723 15.6776 44.6173 15.5761C44.8011 15.5 45.0341 15.5 45.5 15.5H98.5C98.9659 15.5 99.1989 15.5 99.3827 15.5761C99.6277 15.6776 99.8224 15.8723 99.9239 16.1173C100 16.3011 100 16.534 100 17V69C100 69.4659 100 69.6989 99.9239 69.8827C99.8224 70.1277 99.6277 70.3224 99.3827 70.4239C99.1989 70.5 98.9659 70.5 98.5 70.5H45.5C45.0341 70.5 44.8011 70.5 44.6173 70.4239C44.3723 70.3224 44.1776 70.1277 44.0761 69.8827C44 69.6989 44 69.4659 44 69V59C44 58.534 44 58.3011 44.0761 58.1173C44.1776 57.8723 44.3723 57.6776 44.6173 57.5761C44.8011 57.5 45.0341 57.5 45.5 57.5H87C87.4659 57.5 87.6989 57.5 87.8827 57.4239C88.1277 57.3224 88.3224 57.1277 88.4239 56.8827C88.5 56.6989 88.5 56.4659 88.5 56V51C88.5 50.534 88.5 50.3011 88.4239 50.1173C88.3224 49.8723 88.1277 49.6776 87.8827 49.5761C87.6989 49.5 87.4659 49.5 87 49.5H45.5C45.0341 49.5 44.8011 49.5 44.6173 49.4239C44.3723 49.3224 44.1776 49.1277 44.0761 48.8827C44 48.6989 44 48.4659 44 48V38C44 37.534 44 37.3011 44.0761 37.1173C44.1776 36.8723 44.3723 36.6776 44.6173 36.5761C44.8011 36.5 45.0341 36.5 45.5 36.5H87C87.4659 36.5 87.6989 36.5 87.8827 36.4239C88.1277 36.3224 88.3224 36.1277 88.4239 35.8827C88.5 35.6989 88.5 35.4659 88.5 35V30C88.5 29.534 88.5 29.3011 88.4239 29.1173C88.3224 28.8723 88.1277 28.6776 87.8827 28.5761C87.6989 28.5 87.4659 28.5 87 28.5H45.5C45.0341 28.5 44.8011 28.5 44.6173 28.4239C44.3723 28.3224 44.1776 28.1277 44.0761 27.8827C44 27.6989 44 27.4659 44 27Z" fill="black"/>
<path d="M98.5 107.5H90C89.5341 107.5 89.3011 107.5 89.1173 107.424C88.8723 107.322 88.6776 107.128 88.5761 106.883C88.5 106.699 88.5 106.466 88.5 106V93C88.5 92.4477 88.0523 92 87.5 92H45.5C45.0341 92 44.8011 92 44.6173 91.9239C44.3723 91.8224 44.1776 91.6277 44.0761 91.3827C44 91.1989 44 90.9659 44 90.5V80.5C44 80.034 44 79.8011 44.0761 79.6173C44.1776 79.3723 44.3723 79.1776 44.6173 79.0761C44.8011 79 45.0341 79 45.5 79H87.5C88.0523 79 88.5 78.5523 88.5 78V59.5C88.5 59.034 88.5 58.8011 88.5761 58.6173C88.6776 58.3723 88.8723 58.1776 89.1173 58.0761C89.3011 58 89.5341 58 90 58H98.5C98.9659 58 99.1989 58 99.3827 58.0761C99.6277 58.1776 99.8224 58.3723 99.9239 58.6173C100 58.8011 100 59.034 100 59.5V106C100 106.466 100 106.699 99.9239 106.883C99.8224 107.128 99.6277 107.322 99.3827 107.424C99.1989 107.5 98.9659 107.5 98.5 107.5Z" fill="black"/>
<path d="M50 128V16C50 15.4477 49.5523 15.5 49 15.5H44L39 15.5C38.4477 15.5 38 15.4477 38 16V128C38 128.552 38.4477 129 39 129H49C49.5523 129 50 128.552 50 128Z" fill="black"/>
<rect x="106" y="15" width="25" height="25" rx="12.5" fill="#992015"/>
</svg>
